<?xml version="1.0" encoding="utf-8"?>
<!-- Generator: Adobe Illustrator 15.0.0, SVG Export Plug-In . SVG Version: 6.00 Build 0)  -->
<!DOCTYPE svg PUBLIC "-//W3C//DTD SVG 1.1//EN" "http://www.w3.org/Graphics/SVG/1.1/DTD/svg11.dtd">
<svg version="1.1" id="Layer_1" xmlns="http://www.w3.org/2000/svg" xmlns:xlink="http://www.w3.org/1999/xlink" x="0px" y="0px"
	 width="300px" height="300px" viewBox="0 0 300 300" enable-background="new 0 0 300 300" xml:space="preserve">
<g id="Background">
</g>
<g id="Guides">
</g>
<g id="Foreground">
	<path fill="#17233D" d="M125.586,103.844c-2.214,0-4.722-1.581-4.722-4.722v-39.97c0-3.142,2.507-4.723,4.722-4.723
		c2.215,0,4.722,1.581,4.722,4.723v39.97C130.308,102.264,127.801,103.844,125.586,103.844z M119.675,248.307
		c-2.214,0-4.722-1.58-4.722-4.721v-92.102c-10.498-1.991-18.433-11.211-18.433-22.288V59.152c0-3.142,2.507-4.723,4.722-4.723
		c2.215,0,4.722,1.581,4.722,4.723v70.044c0,7.313,5.929,13.243,13.243,13.243h0.938c7.313,0,13.242-5.929,13.242-13.243V59.152
		c0-3.142,2.508-4.723,4.723-4.723c2.214,0,4.722,1.581,4.722,4.723v70.044c0,11.077-7.937,20.296-18.434,22.288v92.102
		C124.397,246.728,121.89,248.307,119.675,248.307z M166.614,138.01c0,2.573,1.352,3.686,3.121,3.686h24.302V61.364
		c-15.449,1.867-27.423,15.025-27.423,30.981V138.01z M203.48,243.586c0,3.142-2.507,4.723-4.722,4.723s-4.722-1.581-4.722-4.723
		v-92.445h-24.303c-7.818,0-12.564-6.217-12.564-13.13V92.345c0-22.452,18.2-40.652,40.652-40.652h0.938
		c2.557,0,4.722,2.165,4.722,4.722v71.521v18.482L203.48,243.586L203.48,243.586z M113.764,103.844
		c-2.215,0-4.722-1.581-4.722-4.722v-39.97c0-3.142,2.507-4.723,4.722-4.723s4.722,1.581,4.722,4.723v39.97
		C118.486,102.264,115.979,103.844,113.764,103.844z"/>
</g>
</svg>
